<svg xmlns="http://www.w3.org/2000/svg" xmlns:xlink="http://www.w3.org/1999/xlink" width="600" viewBox="0 0 450 135.000003" height="180" preserveAspectRatio="xMidYMid meet"><defs><g/><clipPath id="a5fe9bb0f4"><path d="M 44 29 L 183.855469 29 L 183.855469 105 L 44 105 Z M 44 29" clip-rule="nonzero"/></clipPath><mask id="b510e4936c"><g><g transform="matrix(0.145795, 0, 0, 0.146061, 43.892783, 28.814394)"/></g></mask></defs><g clip-path="url(#a5fe9bb0f4)"><g mask="url(#b510e4936c)"><g transform="matrix(0.145795, 0, 0, 0.146061, 43.892783, 28.814394)"/></g></g><g fill="#ffffff" fill-opacity="1"><g transform="translate(197.033371, 102.738976)"><g><path d="M 19.765625 0.859375 C 16.347656 0.859375 13.332031 0.300781 10.71875 -0.8125 C 8.101562 -1.925781 6.0625 -3.625 4.59375 -5.90625 C 3.125 -8.1875 2.390625 -11.066406 2.390625 -14.546875 C 2.390625 -17.484375 2.882812 -19.972656 3.875 -22.015625 C 4.863281 -24.054688 6.25 -25.726562 8.03125 -27.03125 C 9.820312 -28.34375 11.90625 -29.347656 14.28125 -30.046875 C 16.65625 -30.753906 19.21875 -31.203125 21.96875 -31.390625 C 24.96875 -31.609375 27.367188 -31.878906 29.171875 -32.203125 C 30.972656 -32.523438 32.28125 -32.992188 33.09375 -33.609375 C 33.90625 -34.234375 34.3125 -35.039062 34.3125 -36.03125 L 34.3125 -36.21875 C 34.3125 -37.113281 34.0625 -37.863281 33.5625 -38.46875 C 33.070312 -39.070312 32.382812 -39.539062 31.5 -39.875 C 30.625 -40.21875 29.566406 -40.390625 28.328125 -40.390625 C 27.117188 -40.390625 26.023438 -40.210938 25.046875 -39.859375 C 24.078125 -39.503906 23.28125 -38.976562 22.65625 -38.28125 C 22.03125 -37.582031 21.625 -36.707031 21.4375 -35.65625 L 4.0625 -36.984375 C 4.507812 -40.179688 5.710938 -43.03125 7.671875 -45.53125 C 9.640625 -48.03125 12.378906 -50 15.890625 -51.4375 C 19.398438 -52.875 23.675781 -53.59375 28.71875 -53.59375 C 32.539062 -53.59375 35.984375 -53.160156 39.046875 -52.296875 C 42.109375 -51.441406 44.707031 -50.222656 46.84375 -48.640625 C 48.976562 -47.054688 50.613281 -45.195312 51.75 -43.0625 C 52.882812 -40.925781 53.453125 -38.582031 53.453125 -36.03125 L 53.453125 0 L 35.3125 0 L 35.3125 -7.46875 L 34.984375 -7.46875 C 33.898438 -5.457031 32.609375 -3.84375 31.109375 -2.625 C 29.609375 -1.414062 27.914062 -0.535156 26.03125 0.015625 C 24.144531 0.578125 22.054688 0.859375 19.765625 0.859375 Z M 25.984375 -11.25 C 27.421875 -11.25 28.785156 -11.539062 30.078125 -12.125 C 31.367188 -12.71875 32.425781 -13.5625 33.25 -14.65625 C 34.082031 -15.757812 34.5 -17.109375 34.5 -18.703125 L 34.5 -23.015625 C 33.988281 -22.859375 33.453125 -22.679688 32.890625 -22.484375 C 32.335938 -22.296875 31.734375 -22.117188 31.078125 -21.953125 C 30.421875 -21.796875 29.75 -21.65625 29.0625 -21.53125 C 28.382812 -21.40625 27.644531 -21.28125 26.84375 -21.15625 C 25.375 -20.925781 24.171875 -20.554688 23.234375 -20.046875 C 22.296875 -19.535156 21.59375 -18.910156 21.125 -18.171875 C 20.664062 -17.441406 20.4375 -16.617188 20.4375 -15.703125 C 20.4375 -14.742188 20.675781 -13.925781 21.15625 -13.25 C 21.632812 -12.582031 22.285156 -12.082031 23.109375 -11.75 C 23.941406 -11.414062 24.898438 -11.25 25.984375 -11.25 Z M 25.984375 -11.25"/></g></g></g><g fill="#ffffff" fill-opacity="1"><g transform="translate(248.65048, 102.738976)"><g><path d="M 23.015625 0.765625 C 19.253906 0.765625 16 -0.078125 13.25 -1.765625 C 10.507812 -3.460938 8.394531 -5.816406 6.90625 -8.828125 C 5.425781 -11.835938 4.6875 -15.304688 4.6875 -19.234375 L 4.6875 -52.828125 L 23.921875 -52.828125 L 23.921875 -23.359375 C 23.921875 -20.734375 24.570312 -18.671875 25.875 -17.171875 C 27.1875 -15.679688 29.039062 -14.9375 31.4375 -14.9375 C 33 -14.9375 34.347656 -15.273438 35.484375 -15.953125 C 36.617188 -16.640625 37.492188 -17.617188 38.109375 -18.890625 C 38.734375 -20.171875 39.046875 -21.707031 39.046875 -23.5 L 39.046875 -52.828125 L 58.234375 -52.828125 L 58.234375 0 L 40 0 L 39.71875 -13.734375 L 40.71875 -13.734375 C 39.445312 -9.617188 37.414062 -6.171875 34.625 -3.390625 C 31.832031 -0.617188 27.960938 0.765625 23.015625 0.765625 Z M 23.015625 0.765625"/></g></g></g><g fill="#ffffff" fill-opacity="1"><g transform="translate(305.052396, 102.738976)"><g><path d="M 24.015625 0.765625 C 20.097656 0.765625 16.523438 -0.242188 13.296875 -2.265625 C 10.078125 -4.296875 7.519531 -7.328125 5.625 -11.359375 C 3.726562 -15.398438 2.78125 -20.421875 2.78125 -26.421875 C 2.78125 -32.609375 3.765625 -37.707031 5.734375 -41.71875 C 7.710938 -45.738281 10.304688 -48.722656 13.515625 -50.671875 C 16.722656 -52.617188 20.160156 -53.59375 23.828125 -53.59375 C 26.378906 -53.59375 28.617188 -53.175781 30.546875 -52.34375 C 32.484375 -51.519531 34.128906 -50.390625 35.484375 -48.953125 C 36.835938 -47.515625 37.898438 -45.890625 38.671875 -44.078125 L 38.90625 -44.078125 L 38.90625 -71.296875 L 58.09375 -71.296875 L 58.09375 0 L 39.09375 0 L 39.09375 -8.609375 L 38.71875 -8.609375 C 37.945312 -6.734375 36.882812 -5.097656 35.53125 -3.703125 C 34.175781 -2.316406 32.53125 -1.222656 30.59375 -0.421875 C 28.664062 0.367188 26.472656 0.765625 24.015625 0.765625 Z M 30.8125 -14.015625 C 32.570312 -14.015625 34.085938 -14.523438 35.359375 -15.546875 C 36.640625 -16.566406 37.640625 -18.003906 38.359375 -19.859375 C 39.078125 -21.710938 39.4375 -23.898438 39.4375 -26.421875 C 39.4375 -29.003906 39.078125 -31.21875 38.359375 -33.0625 C 37.640625 -34.914062 36.640625 -36.34375 35.359375 -37.34375 C 34.085938 -38.351562 32.570312 -38.859375 30.8125 -38.859375 C 29.0625 -38.859375 27.5625 -38.351562 26.3125 -37.34375 C 25.070312 -36.34375 24.125 -34.914062 23.46875 -33.0625 C 22.8125 -31.21875 22.484375 -29.003906 22.484375 -26.421875 C 22.484375 -23.867188 22.8125 -21.65625 23.46875 -19.78125 C 24.125 -17.914062 25.070312 -16.488281 26.3125 -15.5 C 27.5625 -14.507812 29.0625 -14.015625 30.8125 -14.015625 Z M 30.8125 -14.015625"/></g></g></g><g fill="#ffffff" fill-opacity="1"><g transform="translate(361.310769, 102.738976)"><g><path d="M 4.6875 0 L 4.6875 -52.828125 L 23.359375 -52.828125 L 23.359375 -42.828125 L 23.828125 -42.828125 C 24.785156 -46.523438 26.300781 -49.203125 28.375 -50.859375 C 30.445312 -52.523438 32.984375 -53.359375 35.984375 -53.359375 C 36.816406 -53.359375 37.640625 -53.304688 38.453125 -53.203125 C 39.265625 -53.109375 40.050781 -52.96875 40.8125 -52.78125 L 40.8125 -36.65625 C 39.925781 -36.90625 38.785156 -37.085938 37.390625 -37.203125 C 36.003906 -37.316406 34.800781 -37.375 33.78125 -37.375 C 31.863281 -37.375 30.15625 -36.941406 28.65625 -36.078125 C 27.164062 -35.210938 26.003906 -34.015625 25.171875 -32.484375 C 24.335938 -30.953125 23.921875 -29.132812 23.921875 -27.03125 L 23.921875 0 Z M 4.6875 0"/></g></g></g></svg>